<?xml version="1.0" encoding="UTF-8"?>
<svg width="200px" height="200px" viewBox="0 0 200 200" version="1.1" xmlns="http://www.w3.org/2000/svg">
    <title>Indexy Working - The Friendly Spider Bot</title>
    <defs>
        <radialGradient id="bodyGradient" cx="50%" cy="50%" r="50%" fx="50%" fy="50%">
            <stop offset="0%" style="stop-color:#6366F1;stop-opacity:1" />
            <stop offset="100%" style="stop-color:#4F46E5;stop-opacity:1" />
        </radialGradient>
    </defs>
    <g id="Indexy" stroke="none" stroke-width="1" fill="none" fill-rule="evenodd">
        <!-- Body -->
        <circle id="Body" fill="url(#bodyGradient)" cx="100" cy="100" r="60"></circle>
        
        <!-- Eyes - Focused working eyes -->
        <g id="Eyes" transform="translate(70, 80)">
            <!-- Left Eye -->
            <circle id="Left-Eye-Background" fill="#FFFFFF" cx="20" cy="20" r="15"></circle>
            <circle id="Left-Eye-Pupil" fill="#000000" cx="20" cy="15" r="7"></circle>
            <circle id="Left-Eye-Highlight" fill="#FFFFFF" cx="17" cy="12" r="3"></circle>
            
            <!-- Right Eye -->
            <circle id="Right-Eye-Background" fill="#FFFFFF" cx="60" cy="20" r="15"></circle>
            <circle id="Right-Eye-Pupil" fill="#000000" cx="60" cy="15" r="7"></circle>
            <circle id="Right-Eye-Highlight" fill="#FFFFFF" cx="57" cy="12" r="3"></circle>
        </g>
        
        <!-- Mouth - Focused expression -->
        <path id="Working-Mouth" d="M85,125 C95,125 105,125 115,125" stroke="#FFFFFF" stroke-width="3" stroke-linecap="round"></path>
        
        <!-- Spider Legs - More active positions -->
        <!-- Left Legs -->
        <path id="Left-Leg-1" d="M50,70 C35,60 20,50 10,60" stroke="#4F46E5" stroke-width="4" stroke-linecap="round"></path>
        <path id="Left-Leg-2" d="M45,90 C30,85 15,90 5,100" stroke="#4F46E5" stroke-width="4" stroke-linecap="round"></path>
        <path id="Left-Leg-3" d="M50,110 C30,120 15,135 5,150" stroke="#4F46E5" stroke-width="4" stroke-linecap="round"></path>
        <path id="Left-Leg-4" d="M65,135 C55,150 35,160 20,165" stroke="#4F46E5" stroke-width="4" stroke-linecap="round"></path>
        
        <!-- Right Legs -->
        <path id="Right-Leg-1" d="M150,70 C165,60 180,50 190,60" stroke="#4F46E5" stroke-width="4" stroke-linecap="round"></path>
        <path id="Right-Leg-2" d="M155,90 C170,85 185,90 195,100" stroke="#4F46E5" stroke-width="4" stroke-linecap="round"></path>
        <path id="Right-Leg-3" d="M150,110 C170,120 185,135 195,150" stroke="#4F46E5" stroke-width="4" stroke-linecap="round"></path>
        <path id="Right-Leg-4" d="M135,135 C145,150 165,160 180,165" stroke="#4F46E5" stroke-width="4" stroke-linecap="round"></path>
        
        <!-- Antenna - More active -->
        <path id="Left-Antenna" d="M85,60 C80,45 65,35 55,25" stroke="#4F46E5" stroke-width="3" stroke-linecap="round"></path>
        <circle id="Left-Antenna-Tip" fill="#6366F1" cx="55" cy="25" r="4"></circle>
        
        <path id="Right-Antenna" d="M115,60 C120,45 135,35 145,25" stroke="#4F46E5" stroke-width="3" stroke-linecap="round"></path>
        <circle id="Right-Antenna-Tip" fill="#6366F1" cx="145" cy="25" r="4"></circle>
        
        <!-- Computer/Document Icon that the spider is working on -->
        <rect id="Document" fill="#FFFFFF" opacity="0.8" x="85" y="125" width="30" height="20" rx="2"></rect>
        <line x1="90" y1="130" x2="110" y2="130" stroke="#4F46E5" stroke-width="1"></line>
        <line x1="90" y1="135" x2="105" y2="135" stroke="#4F46E5" stroke-width="1"></line>
        <line x1="90" y1="140" x2="108" y2="140" stroke="#4F46E5" stroke-width="1"></line>
        
        <!-- The Web -->
        <circle id="Web-Outer" stroke="#DDDDDD" stroke-width="1" stroke-dasharray="2,2" cx="100" cy="100" r="85" opacity="0.6"></circle>
        <circle id="Web-Middle" stroke="#DDDDDD" stroke-width="1" stroke-dasharray="2,2" cx="100" cy="100" r="75" opacity="0.6"></circle>
        <circle id="Web-Inner" stroke="#DDDDDD" stroke-width="1" stroke-dasharray="2,2" cx="100" cy="100" r="65" opacity="0.6"></circle>
        
        <!-- Web Lines -->
        <line x1="100" y1="15" x2="100" y2="185" stroke="#DDDDDD" stroke-width="1" stroke-dasharray="2,2" opacity="0.6"></line>
        <line x1="15" y1="100" x2="185" y2="100" stroke="#DDDDDD" stroke-width="1" stroke-dasharray="2,2" opacity="0.6"></line>
        <line x1="36" y1="36" x2="164" y2="164" stroke="#DDDDDD" stroke-width="1" stroke-dasharray="2,2" opacity="0.6"></line>
        <line x1="36" y1="164" x2="164" y2="36" stroke="#DDDDDD" stroke-width="1" stroke-dasharray="2,2" opacity="0.6"></line>
    </g>
</svg>
