<?xml version="1.0" encoding="UTF-8" standalone="no"?>
<svg width="800" height="400" viewBox="0 0 800 400" xmlns="http://www.w3.org/2000/svg">
  <!-- Background -->
  <rect x="0" y="0" width="800" height="400" fill="#212529" rx="8" ry="8"/>
  
  <!-- Header -->
  <rect x="0" y="0" width="800" height="60" fill="#343a40" rx="8 8 0 0" ry="8 8 0 0"/>
  <text x="30" y="38" font-family="Arial" font-size="24" fill="#ffffff">URL Indexing Checker</text>
  
  <!-- Navigation -->
  <text x="650" y="38" font-family="Arial" font-size="16" fill="#adb5bd">Home</text>
  <text x="710" y="38" font-family="Arial" font-size="16" fill="#adb5bd">Reports</text>
  
  <!-- Main Form -->
  <rect x="50" y="80" width="700" height="240" fill="#2b3035" rx="8" ry="8"/>
  <text x="70" y="110" font-family="Arial" font-size="18" fill="#ffffff">Check if your URLs are indexed on Google</text>
  
  <!-- Textarea -->
  <rect x="70" y="130" width="660" height="120" fill="#1a1d20" rx="4" ry="4"/>
  <text x="80" y="155" font-family="Arial" font-size="14" fill="#6c757d">Enter URLs to check (one per line)...</text>
  <text x="80" y="175" font-family="Arial" font-size="14" fill="#ffffff">https://example.com</text>
  <text x="80" y="195" font-family="Arial" font-size="14" fill="#ffffff">https://example.org/page</text>
  <text x="80" y="215" font-family="Arial" font-size="14" fill="#ffffff">https://subdomain.example.net/blog/article</text>
  
  <!-- File Upload -->
  <rect x="70" y="260" width="300" height="40" fill="#1a1d20" rx="4" ry="4"/>
  <text x="90" y="285" font-family="Arial" font-size="14" fill="#6c757d">Upload URL list (TXT or CSV)</text>
  
  <!-- Button -->
  <rect x="610" y="260" width="120" height="40" fill="#0d6efd" rx="4" ry="4"/>
  <text x="630" y="285" font-family="Arial" font-size="16" fill="#ffffff">Check URLs</text>
  
  <!-- Stats Panel -->
  <rect x="50" y="340" width="700" height="40" fill="#0d6efd" opacity="0.2" rx="8" ry="8"/>
  <text x="70" y="365" font-family="Arial" font-size="14" fill="#ffffff">Dashboard stats: 1,253,602 URLs checked • 67.8% indexed • Last scan: April 5, 2025</text>
  
  <!-- Mascot -->
  <circle cx="750" cy="350" r="30" fill="#0d6efd" opacity="0.6"/>
  <text x="740" y="358" font-family="Arial" font-size="24" fill="#ffffff">🕷️</text>
</svg>
